HIERARCHY
ROOT root
{
	OFFSET	0	13.1	24.9
	CHANNELS 6  Xposition Yposition Zposition Xrotation Yrotation Zrotation
	JOINT spine_1
	{
		OFFSET	0	9.99999	0
		CHANNELS 3  Xrotation Yrotation Zrotation
		JOINT spine_2
		{
			OFFSET	0	112	-10
			CHANNELS 3  Xrotation Yrotation Zrotation
			JOINT spine_3
			{
				OFFSET	0	206.5	19.3
				CHANNELS 3  Xrotation Yrotation Zrotation
				JOINT spine_4
				{
					OFFSET	0	110.4	14.6
					CHANNELS 3  Xrotation Yrotation Zrotation
					JOINT neck_1
					{
						OFFSET	0	71.8	-50.3
						CHANNELS 3  Xrotation Yrotation Zrotation
						JOINT neck_2
						{
							OFFSET	0	86.2	-25.8
							CHANNELS 3  Xrotation Yrotation Zrotation
							JOINT head_ee
							{
								OFFSET	0	179.8	-8.7
								CHANNELS 3  Xrotation Yrotation Zrotation
								End Site
								{
									OFFSET	1	0	0
								}
							}
						}
					}
					JOINT left_clavicle
					{
						OFFSET	-43.2	22.4	-70.8
						CHANNELS 3  Xrotation Yrotation Zrotation
						JOINT left_shoulder
						{
							OFFSET	-93.9	-5.79999	48.7
							CHANNELS 3  Xrotation Yrotation Zrotation
							JOINT left_elbow
							{
								OFFSET	-291.4	-30.8	15.2
								CHANNELS 3  Xrotation Yrotation Zrotation
								JOINT left_lowarm_twist
								{
									OFFSET	-110.7	-3.89999	13.6
									CHANNELS 3  Xrotation Yrotation Zrotation
									JOINT left_hand
									{
										OFFSET	-110.7	-3.89999	13.6
										CHANNELS 3  Xrotation Yrotation Zrotation
										JOINT left_ee
										{
											OFFSET	-80.8	-5.10001	12.1
											CHANNELS 3  Xrotation Yrotation Zrotation
											End Site
											{
												OFFSET	1	0	0
											}
										}
									}
								}
							}
						}
					}
					JOINT right_clavicle
					{
						OFFSET	43.2	22.4	-70.8
						CHANNELS 3  Xrotation Yrotation Zrotation
						JOINT right_shoulder
						{
							OFFSET	93.9	-5.79999	48.7
							CHANNELS 3  Xrotation Yrotation Zrotation
							JOINT right_elbow
							{
								OFFSET	291.4	-30.8	15.2
								CHANNELS 3  Xrotation Yrotation Zrotation
								JOINT right_lowarm_twist
								{
									OFFSET	110.7	-3.89999	13.6
									CHANNELS 3  Xrotation Yrotation Zrotation
									JOINT right_hand
									{
										OFFSET	110.7	-3.89999	13.6
										CHANNELS 3  Xrotation Yrotation Zrotation
										JOINT right_ee
										{
											OFFSET	80.8	-5.10001	12.1
											CHANNELS 3  Xrotation Yrotation Zrotation
											End Site
											{
												OFFSET	1	0	0
											}
										}
									}
								}
							}
						}
					}
				}
			}
		}
	}
	JOINT left_hip
	{
		OFFSET	-82.8	-127.5	0.300001
		CHANNELS 3  Xrotation Yrotation Zrotation
		JOINT left_knee
		{
			OFFSET	-28.2	-396.7	2.2
			CHANNELS 3  Xrotation Yrotation Zrotation
			JOINT left_ankle
			{
				OFFSET	-11.7	-411.3	35.4
				CHANNELS 3  Xrotation Yrotation Zrotation
				JOINT left_toes
				{
					OFFSET	0	-60	-88.6
					CHANNELS 3  Xrotation Yrotation Zrotation
					JOINT left_foot_ee
					{
						OFFSET	-22.5	-16.5	-42.2
						CHANNELS 3  Xrotation Yrotation Zrotation
						End Site
						{
							OFFSET	1	0	0
						}
					}
				}
			}
		}
	}
	JOINT right_hip
	{
		OFFSET	82.8	-127.5	0.300001
		CHANNELS 3  Xrotation Yrotation Zrotation
		JOINT right_knee
		{
			OFFSET	28.2	-396.7	2.2
			CHANNELS 3  Xrotation Yrotation Zrotation
			JOINT right_ankle
			{
				OFFSET	11.7	-411.3	35.4
				CHANNELS 3  Xrotation Yrotation Zrotation
				JOINT right_toes
				{
					OFFSET	0	-60	-88.6
					CHANNELS 3  Xrotation Yrotation Zrotation
					JOINT right_foot_ee
					{
						OFFSET	22.5	-16.5	-42.2
						CHANNELS 3  Xrotation Yrotation Zrotation
						End Site
						{
							OFFSET	1	0	0
						}
					}
				}
			}
		}
	}
}
MOTION
Frames: 15
Frame Time: 0.02
615.145 658.867 -515.709 -158.781 -79.3958 -153.648 0.433021 -0.626214 -3.43182 0.43948 -0.406704 -3.46466 0.466881 0.302377 -3.4753 0.450116 -0.249936 -3.47946 -9.27657 10.5262 10.1224 -9.0404 12.8046 12.3655 -0.0 0.0 -0.0 6.94404 24.0086 12.3128 11.749 -26.0985 80.5329 2.20481 -47.517 0.970629 62.262 -1.9794 -7.31259 -1.00226 22.4195 3.13368 -0.0 0.0 -0.0 11.0491 -3.04971 -21.6091 -8.62601 -27.2309 -41.7937 0.360535 10.1264 -0.0319435 84.477 4.36402 8.84173 7.85289 -4.73281 -71.8431 0.0 0.0 0.0 -21.9446 -20.1094 1.03292 2.50676 -0.111315 -0.368512 25.8463 26.9546 -3.65597 -14.5975 0.0 0.0 -0.0 0.0 -0.0 35.1551 -11.6041 -5.32067 -12.5732 -0.310191 -1.90075 -14.5759 25.3692 -2.63789 -23.8722 0.0 0.0 0.0 0.0 0.0 
637.919 657.576 -509.96 -156.603 -80.3264 -151.138 0.368798 -0.442952 -3.7278 0.376504 -0.205015 -3.74839 0.392979 0.562583 -3.71165 0.37376 -0.0302338 -3.75386 -9.08757 11.5231 8.90711 -8.93088 15.485 11.4019 -0.0 0.0 -0.0 6.68198 24.2066 11.9248 10.0711 -28.6174 80.6767 2.05053 -45.4429 0.858733 62.9191 -2.04059 -7.37052 -1.05164 23.682 3.38848 -0.0 0.0 -0.0 11.2293 -4.11995 -21.8791 -7.5924 -26.6168 -41.0062 0.373045 10.4701 -0.0341799 84.6769 4.38787 8.85112 7.93636 -4.89573 -74.0233 0.0 0.0 0.0 -21.9412 -20.5195 0.6206 -1.52031 0.0596064 0.225692 27.3853 26.7815 -3.84105 -9.86627 0.0 0.0 -0.0 0.0 -0.0 34.2536 -12.5686 -4.98344 -13.9301 -0.318556 -2.10876 -15.4329 26.2935 -2.82626 -24.1208 0.0 0.0 0.0 0.0 0.0 
661.109 656.181 -506.089 -155.186 -81.6381 -149.693 0.369719 -0.470033 -3.98377 0.37852 -0.215791 -4.00556 0.397092 0.604223 -3.96567 0.375153 -0.0291399 -4.01125 -9.44129 10.6442 9.63037 -9.23827 13.408 11.9316 -0.0 0.0 -0.0 6.31919 24.6096 11.3843 8.74699 -29.9481 81.1853 1.94479 -43.9271 0.784372 63.0583 -2.05364 -7.38271 -1.33859 23.2307 1.54659 -0.0 0.0 -0.0 11.4843 -4.50186 -22.361 -6.61064 -25.8796 -40.3971 0.460475 12.8498 -0.0518537 83.8531 4.28972 8.81188 7.93589 -4.91717 -74.0367 0.0 0.0 0.0 -21.7891 -20.8527 0.496871 -5.30339 0.18174 0.793334 27.5575 27.1506 -3.87125 -6.66722 0.0 0.0 -0.0 0.0 -0.0 33.0863 -12.9457 -4.66327 -16.5276 -0.32082 -2.50726 -11.5947 23.4628 -2.04651 -23.5599 0.0 0.0 0.0 0.0 0.0 
686.655 660.494 -505.891 -157.378 -81.9921 -151.915 0.4064 -0.445773 -4.20083 0.416197 -0.177804 -4.22064 0.432979 0.682806 -4.16893 0.408734 0.0164443 -4.22434 -9.03468 9.6535 9.20604 -8.83802 11.7411 11.2546 -0.0 0.0 -0.0 5.95121 24.2195 10.9019 4.13255 -30.5306 81.0611 2.01122 -44.8887 0.830856 61.9179 -1.94762 -7.28198 -1.60978 22.0565 -0.55364 -0.0 0.0 -0.0 11.3331 -2.86558 -22.2103 -3.12353 -28.0868 -39.5635 0.439965 12.2953 -0.0473891 85.3347 4.46665 8.88145 8.0956 -1.80335 -74.1433 0.0 0.0 0.0 -21.497 -18.9087 1.75048 -6.99401 0.224142 1.04931 16.3126 29.1519 -2.43605 1.52369 -0.0 -0.0 -0.0 0.0 -0.0 29.9362 -13.1561 -4.81542 -16.106 -0.321681 -2.44257 -1.47938 21.5572 -0.250919 -24.896 0.0 0.0 0.0 0.0 0.0 
715.441 664.383 -504.613 -160.455 -82.7702 -154.86 0.461854 -0.454702 -4.3419 0.472321 -0.177763 -4.36199 0.489624 0.707368 -4.30802 0.463735 0.0187934 -4.36556 -8.67011 9.01547 9.02917 -8.47323 10.5848 10.9119 -0.0 0.0 -0.0 6.10403 24.2954 11.1093 0.620986 -31.111 80.7894 1.82175 -42.0604 0.700455 61.2445 -1.88597 -7.22153 -1.8524 20.456 -2.73042 -0.0 0.0 -0.0 11.079 -2.20476 -21.7415 -1.74919 -26.8765 -40.5545 0.309913 8.72821 -0.0236514 85.2488 4.45634 8.87754 8.15287 -0.874413 -74.305 0.0 0.0 0.0 -19.3887 -17.1112 1.42329 -15.001 0.321678 2.27304 8.8519 28.7182 -1.3507 10.2227 -0.0 -0.0 -0.0 0.0 -0.0 26.9247 -14.0221 -4.22302 -16.8308 -0.319907 -2.55377 3.37975 22.1368 0.568474 -24.6319 0.0 0.0 0.0 0.0 0.0 
736.101 665.776 -503.085 -163.435 -82.2043 -158.395 0.477371 -0.393115 -4.35214 0.487898 -0.11565 -4.3683 0.500342 0.768843 -4.30179 0.474535 0.0804833 -4.36909 -10.523 9.76575 8.52426 -10.3849 12.7407 10.7522 -0.0 0.0 -0.0 6.52647 23.3197 11.7805 -2.56566 -25.6263 79.5786 1.59433 -38.2984 0.553652 59.521 -1.73147 -7.06357 -2.61159 20.8002 -7.05441 -0.0 0.0 -0.0 11.1533 -0.707321 -22.0111 0.794729 -27.6446 -41.1667 0.357759 10.05 -0.0314572 85.2619 4.45792 8.87814 8.22187 2.22483 -71.6554 0.0 0.0 0.0 -16.333 -14.9041 2.61137 -22.2138 0.262774 3.37744 4.8016 27.7381 -0.73625 17.5254 -0.0 -0.0 -0.0 0.0 -0.0 24.3598 -14.5703 -4.30127 -14.0441 -0.319034 -2.12625 5.29126 23.1116 0.893252 -25.9013 0.0 0.0 0.0 0.0 0.0 
758.536 667.992 -500.42 -170.435 -83.0086 -165.969 0.479203 -0.335662 -4.10425 0.488569 -0.074044 -4.11726 0.497051 0.759076 -4.04748 0.474214 0.110892 -4.11644 -9.83643 8.84265 8.44429 -9.67917 10.9085 10.3855 -0.0 0.0 -0.0 6.57084 22.5481 11.9069 -4.99447 -25.7143 79.1169 1.39639 -34.6709 0.435896 57.9522 -1.59505 -6.91584 -2.62147 18.3872 -8.38493 -0.0 0.0 -0.0 11.1985 0.945079 -22.2164 2.68031 -26.3921 -42.8416 0.324343 9.12791 -0.0258907 85.3115 4.46386 8.88039 8.24214 3.61696 -70.248 0.0 0.0 0.0 -15.0014 -12.8256 1.92933 -28.131 0.111102 4.27246 -1.86105 28.0657 0.290296 21.5955 -0.0 -0.0 -0.0 0.0 -0.0 21.1275 -15.0968 -4.09009 -14.1149 -0.319314 -2.13711 11.4385 18.7622 1.808 -24.5925 0.0 0.0 0.0 0.0 0.0 
777.625 674.081 -491.083 -176.586 -83.2882 -172.376 0.302944 -0.16271 -3.8397 0.311141 0.0817659 -3.84227 0.308522 0.868642 -3.74383 0.289066 0.266929 -3.83387 -10.5121 9.03468 8.46321 -10.3643 11.3951 10.5058 -0.0 0.0 -0.0 6.63117 22.2468 12.0191 -6.69086 -23.8499 78.5248 1.23928 -31.5446 0.350046 55.9174 -1.42424 -6.71881 -3.21238 18.5446 -11.9224 -0.0 0.0 -0.0 11.2105 2.99446 -22.3524 5.07577 -27.5839 -45.0557 0.349542 9.82374 -0.0300394 85.0257 4.42961 8.86732 8.23073 5.35964 -67.868 0.0 0.0 0.0 -13.4987 -12.0386 0.977793 -32.2183 -0.0472736 4.87959 -10.3352 25.2717 1.60838 24.9435 -0.0 -0.0 -0.0 0.0 -0.0 16.8376 -16.0733 -4.52184 -10.5109 -0.288052 -1.58511 13.2404 23.727 2.17804 -23.2187 0.0 0.0 0.0 0.0 0.0 
797.633 680.773 -485.14 176.915 -84.6492 -178.757 0.210018 -0.274043 -3.59723 0.217215 -0.044739 -3.60736 0.222927 0.701541 -3.53886 0.205479 0.13422 -3.60514 -10.6306 8.84898 7.70816 -10.5198 11.5729 9.7424 -0.0 0.0 -0.0 6.67746 21.7607 12.1263 -8.89802 -22.3598 76.7949 1.06464 -27.806 0.263537 54.5044 -1.30982 -6.57851 -3.57524 17.8889 -14.5609 -0.0 0.0 -0.0 11.3943 4.65596 -22.8205 7.49255 -28.215 -46.7057 0.388734 10.9001 -0.037089 85.0321 4.43037 8.86761 8.22039 6.55717 -66.2754 0.0 0.0 0.0 -12.382 -10.6611 -0.411571 -34.9176 -0.175478 5.27384 -15.5757 25.4686 2.43923 27.1167 -0.0 -0.0 -0.0 0.0 -0.0 13.7686 -16.0433 -4.69181 -9.15182 -0.267255 -1.3776 15.8254 25.1318 2.61054 -21.8187 0.0 0.0 0.0 0.0 0.0 
817.058 685.535 -478.742 163.208 -86.0041 167.297 0.182162 -0.306545 -3.2755 0.188125 -0.0976104 -3.28835 0.196263 0.585187 -3.23739 0.181645 0.0668462 -3.28912 -11.7734 8.68467 7.68027 -11.676 11.4909 9.77506 -0.0 0.0 -0.0 7.08609 21.344 12.7695 -10.2828 -20.8558 75.4504 0.79243 -21.4322 0.149964 52.8276 -1.1786 -6.40846 -3.78868 17.977 -15.8545 -0.0 0.0 -0.0 11.1128 8.20183 -22.2832 9.41001 -29.866 -50.7275 0.457377 12.7662 -0.0511668 85.0049 4.42711 8.86636 8.39297 8.84046 -66.3184 0.0 0.0 0.0 -9.18785 -10.3046 -1.47733 -42.3739 -0.624657 6.32736 -18.9195 24.5956 2.95591 29.4572 -0.0 -0.0 -0.0 0.0 -0.0 10.2539 -17.7296 -4.62243 -7.45237 -0.234335 -1.11891 18.0879 27.609 3.0347 -18.8844 0.0 0.0 0.0 0.0 0.0 
837.191 686.081 -469.693 130.277 -85.8159 134.144 -0.372665 -0.269949 -2.77705 -0.36838 -0.0927614 -2.78859 -0.361411 0.513071 -2.74259 -0.3719 0.0736678 -2.78916 -12.787 6.56472 4.94609 -12.7722 9.36289 6.65271 -0.0 0.0 -0.0 7.62377 21.2295 13.5892 -11.1943 -19.2394 72.3314 0.521295 -14.4796 0.0662232 51.6484 -1.08933 -6.28663 -4.04961 19.6239 -16.4803 -0.0 0.0 -0.0 11.0844 12.7951 -22.1871 10.1323 -32.4327 -53.1738 0.574889 15.8962 -0.0802652 84.856 4.40929 8.85947 8.59952 9.00356 -69.6322 0.0 0.0 0.0 -6.33492 -10.5642 -3.24283 -51.8288 -1.38515 7.56623 -21.7661 20.5043 3.34458 31.0837 -0.0 -0.0 -0.0 0.0 -0.0 7.9911 -16.0916 -4.86539 -10.5146 -0.288101 -1.58567 21.4012 28.6854 3.57029 -18.8235 0.0 0.0 0.0 0.0 0.0 
851.913 693.512 -458.031 91.6072 -86.0193 95.5901 -0.479843 -0.45718 -2.43059 -0.476607 -0.301637 -2.45473 -0.461418 0.24091 -2.46143 -0.469841 -0.150728 -2.46859 -12.8161 6.04131 3.19829 -12.8431 9.47212 4.83723 -0.0 0.0 -0.0 7.66007 20.4775 13.7231 -12.5047 -18.7235 70.2146 0.373683 -10.4876 0.0342959 50.73 -1.02156 -6.1905 -3.96261 20.3448 -15.4869 -0.0 0.0 -0.0 12.1245 17.8765 -24.354 11.8591 -34.6952 -54.2619 0.744721 20.2496 -0.13299 84.8135 4.40421 8.8575 8.77542 11.3704 -69.2763 0.0 0.0 0.0 -4.51183 -12.1611 -4.75981 -53.0813 -1.50099 7.72055 -24.5802 20.7728 3.78168 31.2337 -0.0 -0.0 -0.0 0.0 -0.0 6.78123 -12.8668 -5.84266 -13.2998 -0.315283 -2.01212 21.7705 23.4384 3.41538 -16.927 0.0 0.0 0.0 0.0 0.0 
869.223 697.546 -449.254 82.7429 -85.0363 86.8062 -0.778333 -0.336886 -2.01505 -0.776098 -0.208008 -2.03239 -0.767021 0.251023 -2.02753 -0.772751 -0.0722686 -2.04172 -13.6336 4.86775 2.28719 -13.6625 7.86676 3.67636 -0.0 0.0 -0.0 7.71036 20.0133 13.8485 -13.6421 -18.1501 68.3149 0.222605 -6.29286 0.0122368 49.7032 -0.947644 -6.08177 -4.24407 20.259 -17.2929 -0.0 0.0 -0.0 12.4724 19.8433 -25.0327 13.8507 -36.4521 -54.8863 0.87406 23.4116 -0.181105 85.0001 4.42654 8.86614 8.86095 12.2912 -69.3658 0.0 0.0 0.0 0.638231 -13.8375 -5.45593 -57.6257 -1.94913 8.25869 -24.8605 20.6385 3.82283 33.5471 -0.0 -0.0 -0.0 0.0 -0.0 3.72159 -14.1882 -6.29943 -13.9617 -0.318692 -2.11362 25.3053 27.6875 4.07073 -15.0935 0.0 0.0 0.0 0.0 0.0 
877.5 695.999 -443.775 59.4771 -83.7711 63.5667 -0.965934 -0.467462 -1.69416 -0.964409 -0.358727 -1.72046 -0.95218 0.0400436 -1.75699 -0.956409 -0.237901 -1.74128 -12.386 3.80705 0.131483 -12.415 7.14384 1.22165 -0.0 0.0 -0.0 7.89159 19.2417 14.2114 -14.3778 -17.6627 66.4049 0.170606 -4.8309 0.00719664 49.1848 -0.911068 -6.02637 -4.34911 20.8497 -17.5644 -0.0 0.0 -0.0 12.7854 22.5239 -25.5423 15.1295 -37.2202 -55.1237 1.07303 27.9921 -0.267466 84.7673 4.39869 8.85535 8.9761 13.2067 -69.9406 0.0 0.0 0.0 2.97932 -13.788 -7.30835 -58.3721 -2.02679 8.34366 -23.8211 19.7494 3.65146 33.9642 -0.0 -0.0 -0.0 0.0 -0.0 2.37157 -12.534 -6.61038 -17.7516 -0.315625 -2.69499 26.065 26.5107 4.11594 -13.7244 0.0 0.0 0.0 0.0 0.0 
886.952 699.385 -438.382 48.1275 -81.8717 52.1448 -1.33184 -0.376808 -1.48521 -1.33066 -0.281548 -1.50617 -1.32204 0.076614 -1.53034 -1.32527 -0.166007 -1.52324 -11.9003 3.23166 -1.76056 -11.9181 7.26117 -0.789571 -0.0 0.0 -0.0 7.83608 17.8827 14.26 -15.0756 -17.3631 64.7976 0.152343 -4.31583 0.00574038 48.876 -0.889527 -5.99324 -4.65923 22.731 -18.2213 -0.0 0.0 -0.0 12.8961 24.567 -25.5974 16.432 -37.6324 -54.7855 1.2354 31.4646 -0.348019 84.4031 4.35519 8.83824 9.03252 13.6738 -70.1755 0.0 0.0 0.0 5.19642 -14.2004 -8.32023 -59.1807 -2.11216 8.43456 -22.6032 19.1266 3.4573 34.5518 -0.0 -0.0 -0.0 0.0 -0.0 1.46667 -11.3892 -7.13561 -18.7941 -0.308039 -2.85475 26.3497 25.5485 4.10918 -12.9196 0.0 0.0 0.0 0.0 0.0 
